<svg xmlns="http://www.w3.org/2000/svg" viewBox="0 0 48 48" id="Gps">
  <path d="M24.06 22.76a3.69 3.69 0 1 0-3.69-3.69 3.7 3.7 0 0 0 3.69 3.69Zm0-4.92a1.23 1.23 0 1 1-1.23 1.23 1.24 1.24 0 0 1 1.23-1.23Zm-7.54 7.56a14.12 14.12 0 0 1 .88 1.15l.11.15 5.61 6.56a1.26 1.26 0 0 0 .94.43 1.24 1.24 0 0 0 .93-.43l5.62-6.56.11-.15a10.84 10.84 0 0 1 .88-1.17l.09-.11a9.84 9.84 0 1 0-15.26 0Zm2.33-11.54a7.37 7.37 0 0 1 10.92 9.87l-.09.09a12.62 12.62 0 0 0-1 1.34l-4.62 5.41-4.62-5.41a13 13 0 0 0-1-1.32l-.1-.11a7.33 7.33 0 0 1 .51-9.87Zm22.26 23.19-3.69-8.6a1.25 1.25 0 0 0-1.13-.75h-4.92v2.4h4.11l2.63 6.08H9.89l2.63-6.08h4.11v-2.4h-4.92a1.25 1.25 0 0 0-1.13.75l-3.68 8.6a1.26 1.26 0 0 0 .1 1.16 1.27 1.27 0 0 0 1 .55h32a1.24 1.24 0 0 0 1.14-1.71Z" fill="#ffffff" class="color000000 svgShape"></path>
</svg>
