<svg xmlns="http://www.w3.org/2000/svg" xmlns:xlink="http://www.w3.org/1999/xlink" width="500" zoomAndPan="magnify" viewBox="0 0 375 374.999991" height="500" preserveAspectRatio="xMidYMid meet" version="1.0"><defs><g/></defs><rect x="-37.5" width="450" fill="#ffffff" y="-37.499999" height="449.999989" fill-opacity="1"/><rect x="-37.5" width="450" fill="#000000" y="-37.499999" height="449.999989" fill-opacity="1"/><g fill="#f1efe7" fill-opacity="1"><g transform="translate(10.73725, 224.320584)"><g><path d="M 8.140625 0 L 8.140625 -69.640625 L 32.171875 -69.640625 L 32.171875 -62.3125 L 32.4375 -62.3125 C 38.6875 -68.550781 45.34375 -71.671875 52.40625 -71.671875 C 57.46875 -71.671875 62.21875 -70.628906 66.65625 -68.546875 C 71.09375 -66.472656 74.441406 -63.265625 76.703125 -58.921875 C 83.753906 -67.421875 91.445312 -71.671875 99.78125 -71.671875 C 107.195312 -71.671875 113.570312 -69.585938 118.90625 -65.421875 C 124.25 -61.265625 126.921875 -54.753906 126.921875 -45.890625 L 126.921875 0 L 102.90625 0 L 102.90625 -39.375 C 102.90625 -43.082031 101.882812 -46.179688 99.84375 -48.671875 C 97.8125 -51.160156 94.757812 -52.40625 90.6875 -52.40625 C 87.15625 -52.40625 84.460938 -51.335938 82.609375 -49.203125 C 80.753906 -47.078125 79.734375 -44.523438 79.546875 -41.546875 L 79.546875 0 L 55.515625 0 L 55.515625 -39.375 C 55.515625 -43.082031 54.492188 -46.179688 52.453125 -48.671875 C 50.421875 -51.160156 47.367188 -52.40625 43.296875 -52.40625 C 39.585938 -52.40625 36.804688 -51.25 34.953125 -48.9375 C 33.097656 -46.625 32.171875 -43.882812 32.171875 -40.71875 L 32.171875 0 Z M 8.140625 0 "/></g></g></g><g fill="#f1efe7" fill-opacity="1"><g transform="translate(140.106954, 224.320584)"><g><path d="M 12.890625 -8.625 C 6.378906 -15.726562 3.125 -24.4375 3.125 -34.75 C 3.125 -45.070312 6.378906 -53.804688 12.890625 -60.953125 C 19.410156 -68.097656 27.691406 -71.671875 37.734375 -71.671875 C 46.960938 -71.671875 54.566406 -68.773438 60.546875 -62.984375 L 60.546875 -69.640625 L 84.578125 -69.640625 L 84.578125 0 L 60.8125 0 L 60.8125 -7.875 L 60.546875 -7.875 C 54.566406 -1.269531 46.960938 2.03125 37.734375 2.03125 C 27.691406 2.03125 19.410156 -1.519531 12.890625 -8.625 Z M 33.328125 -46.5625 C 30.203125 -43.488281 28.640625 -39.550781 28.640625 -34.75 C 28.640625 -29.957031 30.132812 -26.046875 33.125 -23.015625 C 36.113281 -19.984375 40.050781 -18.46875 44.9375 -18.46875 C 49.644531 -18.46875 53.515625 -20.003906 56.546875 -23.078125 C 59.578125 -26.148438 61.09375 -30.039062 61.09375 -34.75 C 61.09375 -39.550781 59.53125 -43.488281 56.40625 -46.5625 C 53.28125 -49.632812 49.457031 -51.171875 44.9375 -51.171875 C 40.320312 -51.171875 36.453125 -49.632812 33.328125 -46.5625 Z M 33.328125 -46.5625 "/></g></g></g><g fill="#f1efe7" fill-opacity="1"><g transform="translate(228.48017, 224.320584)"><g><path d="M 5.015625 17.109375 L 24.703125 7.46875 C 28.328125 13.4375 34.617188 16.421875 43.578125 16.421875 C 47.734375 16.421875 51.597656 15.085938 55.171875 12.421875 C 58.753906 9.753906 60.546875 5.660156 60.546875 0.140625 L 60.546875 -5.015625 C 56.296875 -0.316406 48.691406 2.03125 37.734375 2.03125 C 27.691406 2.03125 19.410156 -1.519531 12.890625 -8.625 C 6.378906 -15.726562 3.125 -24.4375 3.125 -34.75 C 3.125 -45.070312 6.378906 -53.804688 12.890625 -60.953125 C 19.410156 -68.097656 27.691406 -71.671875 37.734375 -71.671875 C 46.691406 -71.671875 54.160156 -68.910156 60.140625 -63.390625 L 60.546875 -63.390625 L 60.546875 -69.640625 L 84.578125 -69.640625 L 84.578125 1.90625 C 84.578125 13.21875 80.816406 21.945312 73.296875 28.09375 C 65.785156 34.25 55.878906 37.328125 43.578125 37.328125 C 23.660156 37.328125 10.804688 30.585938 5.015625 17.109375 Z M 33.328125 -46.5625 C 30.203125 -43.488281 28.640625 -39.550781 28.640625 -34.75 C 28.640625 -29.957031 30.132812 -26.046875 33.125 -23.015625 C 36.113281 -19.984375 40.050781 -18.46875 44.9375 -18.46875 C 49.644531 -18.46875 53.515625 -20.003906 56.546875 -23.078125 C 59.578125 -26.148438 61.09375 -30.039062 61.09375 -34.75 C 61.09375 -39.550781 59.53125 -43.488281 56.40625 -46.5625 C 53.28125 -49.632812 49.457031 -51.171875 44.9375 -51.171875 C 40.320312 -51.171875 36.453125 -49.632812 33.328125 -46.5625 Z M 33.328125 -46.5625 "/></g></g></g><g fill="#f1efe7" fill-opacity="1"><g transform="translate(316.853387, 224.320584)"><g><path d="M 23.625 -29.046875 C 27.96875 -29.046875 31.65625 -27.53125 34.6875 -24.5 C 37.71875 -21.46875 39.234375 -17.78125 39.234375 -13.4375 C 39.234375 -9.1875 37.71875 -5.546875 34.6875 -2.515625 C 31.65625 0.515625 27.96875 2.03125 23.625 2.03125 C 19.363281 2.03125 15.71875 0.515625 12.6875 -2.515625 C 9.65625 -5.546875 8.140625 -9.1875 8.140625 -13.4375 C 8.140625 -17.78125 9.65625 -21.46875 12.6875 -24.5 C 15.71875 -27.53125 19.363281 -29.046875 23.625 -29.046875 Z M 23.625 -29.046875 "/></g></g></g></svg>