<svg xmlns="http://www.w3.org/2000/svg" xmlns:xlink="http://www.w3.org/1999/xlink" width="500" zoomAndPan="magnify" viewBox="0 0 375 187.499995" height="250" preserveAspectRatio="xMidYMid meet" version="1.0"><defs><g/></defs><g fill="#f1efe7" fill-opacity="1"><g transform="translate(68.498405, 114.991711)"><g><path d="M 5.28125 0 L 5.28125 -45.21875 L 20.890625 -45.21875 L 20.890625 -40.453125 L 21.0625 -40.453125 C 25.113281 -44.503906 29.429688 -46.53125 34.015625 -46.53125 C 37.304688 -46.53125 40.390625 -45.851562 43.265625 -44.5 C 46.148438 -43.15625 48.328125 -41.070312 49.796875 -38.25 C 54.378906 -43.769531 59.375 -46.53125 64.78125 -46.53125 C 69.601562 -46.53125 73.742188 -45.175781 77.203125 -42.46875 C 80.671875 -39.769531 82.40625 -35.546875 82.40625 -29.796875 L 82.40625 0 L 66.8125 0 L 66.8125 -25.5625 C 66.8125 -27.96875 66.148438 -29.976562 64.828125 -31.59375 C 63.503906 -33.207031 61.519531 -34.015625 58.875 -34.015625 C 56.582031 -34.015625 54.832031 -33.320312 53.625 -31.9375 C 52.425781 -30.5625 51.769531 -28.90625 51.65625 -26.96875 L 51.65625 0 L 36.046875 0 L 36.046875 -25.5625 C 36.046875 -27.96875 35.382812 -29.976562 34.0625 -31.59375 C 32.738281 -33.207031 30.753906 -34.015625 28.109375 -34.015625 C 25.703125 -34.015625 23.894531 -33.265625 22.6875 -31.765625 C 21.488281 -30.273438 20.890625 -28.5 20.890625 -26.4375 L 20.890625 0 Z M 5.28125 0 "/></g></g></g><g fill="#f1efe7" fill-opacity="1"><g transform="translate(155.310064, 114.991711)"><g><path d="M 8.375 -5.59375 C 4.144531 -10.207031 2.03125 -15.863281 2.03125 -22.5625 C 2.03125 -29.257812 4.144531 -34.925781 8.375 -39.5625 C 12.601562 -44.207031 17.976562 -46.53125 24.5 -46.53125 C 30.5 -46.53125 35.4375 -44.648438 39.3125 -40.890625 L 39.3125 -45.21875 L 54.90625 -45.21875 L 54.90625 0 L 39.484375 0 L 39.484375 -5.109375 L 39.3125 -5.109375 C 35.4375 -0.816406 30.5 1.328125 24.5 1.328125 C 17.976562 1.328125 12.601562 -0.976562 8.375 -5.59375 Z M 21.625 -30.234375 C 19.601562 -28.234375 18.59375 -25.675781 18.59375 -22.5625 C 18.59375 -19.445312 19.5625 -16.90625 21.5 -14.9375 C 23.445312 -12.96875 26.003906 -11.984375 29.171875 -11.984375 C 32.234375 -11.984375 34.742188 -12.984375 36.703125 -14.984375 C 38.671875 -16.984375 39.65625 -19.507812 39.65625 -22.5625 C 39.65625 -25.675781 38.640625 -28.234375 36.609375 -30.234375 C 34.585938 -32.234375 32.109375 -33.234375 29.171875 -33.234375 C 26.171875 -33.234375 23.65625 -32.234375 21.625 -30.234375 Z M 21.625 -30.234375 "/></g></g></g><g fill="#f1efe7" fill-opacity="1"><g transform="translate(215.505355, 114.991711)"><g><path d="M 3.265625 11.109375 L 16.046875 4.84375 C 18.390625 8.726562 22.472656 10.671875 28.296875 10.671875 C 30.992188 10.671875 33.503906 9.800781 35.828125 8.0625 C 38.148438 6.332031 39.3125 3.675781 39.3125 0.09375 L 39.3125 -3.265625 C 36.550781 -0.203125 31.613281 1.328125 24.5 1.328125 C 17.976562 1.328125 12.601562 -0.976562 8.375 -5.59375 C 4.144531 -10.207031 2.03125 -15.863281 2.03125 -22.5625 C 2.03125 -29.257812 4.144531 -34.925781 8.375 -39.5625 C 12.601562 -44.207031 17.976562 -46.53125 24.5 -46.53125 C 30.320312 -46.53125 35.171875 -44.738281 39.046875 -41.15625 L 39.3125 -41.15625 L 39.3125 -45.21875 L 54.90625 -45.21875 L 54.90625 1.234375 C 54.90625 8.578125 52.46875 14.242188 47.59375 18.234375 C 42.71875 22.234375 36.285156 24.234375 28.296875 24.234375 C 15.367188 24.234375 7.023438 19.859375 3.265625 11.109375 Z M 21.625 -30.234375 C 19.601562 -28.234375 18.59375 -25.675781 18.59375 -22.5625 C 18.59375 -19.445312 19.5625 -16.90625 21.5 -14.9375 C 23.445312 -12.96875 26.003906 -11.984375 29.171875 -11.984375 C 32.234375 -11.984375 34.742188 -12.984375 36.703125 -14.984375 C 38.671875 -16.984375 39.65625 -19.507812 39.65625 -22.5625 C 39.65625 -25.675781 38.640625 -28.234375 36.609375 -30.234375 C 34.585938 -32.234375 32.109375 -33.234375 29.171875 -33.234375 C 26.171875 -33.234375 23.65625 -32.234375 21.625 -30.234375 Z M 21.625 -30.234375 "/></g></g></g><g fill="#f1efe7" fill-opacity="1"><g transform="translate(275.700646, 114.991711)"><g><path d="M 15.34375 -18.859375 C 18.15625 -18.859375 20.546875 -17.875 22.515625 -15.90625 C 24.484375 -13.9375 25.46875 -11.539062 25.46875 -8.71875 C 25.46875 -5.957031 24.484375 -3.59375 22.515625 -1.625 C 20.546875 0.34375 18.15625 1.328125 15.34375 1.328125 C 12.570312 1.328125 10.203125 0.34375 8.234375 -1.625 C 6.265625 -3.59375 5.28125 -5.957031 5.28125 -8.71875 C 5.28125 -11.539062 6.265625 -13.9375 8.234375 -15.90625 C 10.203125 -17.875 12.570312 -18.859375 15.34375 -18.859375 Z M 15.34375 -18.859375 "/></g></g></g></svg>