<svg xmlns="http://www.w3.org/2000/svg" fill="none" viewBox="0 0 128 128" id="Map">
  <path stroke="#ffffff" stroke-linecap="round" stroke-width="5" d="M43 73H41.7116C39.8244 73 38.0979 74.0626 37.2477 75.7474L25.8299 98.3737C24.9908 100.036 26.1993 102 28.0618 102H99.9382C101.801 102 103.009 100.036 102.17 98.3737L90.7523 75.7474C89.9021 74.0626 88.1756 73 86.2884 73H86" class="colorStroke000000 svgStroke"></path>
  <path stroke="#ffffff" stroke-width="5" d="M43.7711 63.0426C37.9181 53.4638 39.42 41.0898 47.3575 33.1522V33.1522C56.8073 23.7024 72.1703 23.6606 81.6201 33.1104V33.1104C89.5285 41.0188 90.9868 53.3166 85.1472 62.8552L82.7419 66.7841L82.2587 67.4288C77.5421 73.7213 72.3733 79.6804 66.8119 85.2404V85.2404C65.4746 86.5774 63.3037 86.5804 61.9664 85.2434V85.2434C56.4166 79.6949 51.2701 73.7571 46.5664 67.4753L46.0945 66.8451L43.7711 63.0426Z" class="colorStroke000000 svgStroke"></path>
  <circle cx="64.5" cy="51.5" r="9" stroke="#ffffff" stroke-width="5" class="colorStroke000000 svgStroke"></circle>
</svg>
